<mxfile host="app.diagrams.net" modified="2021-12-01T08:20:01.423Z" agent="5.0 (Windows NT 10.0; Win64; x64) AppleWebKit/537.36 (KHTML, like Gecko) Chrome/94.0.4606.61 Safari/537.36" etag="dux44tkmy2ZbiqzaepY4" version="15.8.8" type="github">
  <diagram id="kgpKYQtTHZ0yAKxKKP6v" name="Page-1">
    <mxGraphModel dx="1422" dy="754" grid="1" gridSize="10" guides="1" tooltips="1" connect="1" arrows="1" fold="1" page="1" pageScale="1" pageWidth="850" pageHeight="1100" math="0" shadow="0">
      <root>
        <mxCell id="0" />
        <mxCell id="1" parent="0" />
        <mxCell id="3nuBFxr9cyL0pnOWT2aG-1" value="订单中心" style="shape=umlLifeline;perimeter=lifelinePerimeter;container=1;collapsible=0;recursiveResize=0;shadow=0;strokeWidth=1;fillColor=#B2C9AB;strokeColor=#788AA3;fontColor=#FFFFFF;rounded=0;" parent="1" vertex="1">
          <mxGeometry x="20" y="50" width="100" height="300" as="geometry" />
        </mxCell>
        <mxCell id="3nuBFxr9cyL0pnOWT2aG-2" value="" style="points=[];perimeter=orthogonalPerimeter;shadow=0;strokeWidth=1;fillColor=#B2C9AB;strokeColor=#788AA3;fontColor=#46495D;rounded=0;" parent="3nuBFxr9cyL0pnOWT2aG-1" vertex="1">
          <mxGeometry x="45" y="70" width="10" height="70" as="geometry" />
        </mxCell>
        <mxCell id="3nuBFxr9cyL0pnOWT2aG-5" value="商户结算" style="shape=umlLifeline;perimeter=lifelinePerimeter;container=1;collapsible=0;recursiveResize=0;shadow=0;strokeWidth=1;fillColor=#B2C9AB;strokeColor=#788AA3;fontColor=#46495D;rounded=0;" parent="1" vertex="1">
          <mxGeometry x="190" y="50" width="100" height="300" as="geometry" />
        </mxCell>
        <mxCell id="3nuBFxr9cyL0pnOWT2aG-6" value="" style="points=[];perimeter=orthogonalPerimeter;shadow=0;strokeWidth=1;fillColor=#B2C9AB;strokeColor=#788AA3;fontColor=#46495D;rounded=0;" parent="3nuBFxr9cyL0pnOWT2aG-5" vertex="1">
          <mxGeometry x="45" y="80" width="10" height="160" as="geometry" />
        </mxCell>
        <mxCell id="3R4pQPPEvZektnw-kuWU-1" value=":Object" style="shape=umlLifeline;perimeter=lifelinePerimeter;container=1;collapsible=0;recursiveResize=0;shadow=0;strokeWidth=1;fillColor=#B2C9AB;strokeColor=#788AA3;fontColor=#46495D;rounded=0;" vertex="1" parent="1">
          <mxGeometry x="470" y="60" width="100" height="300" as="geometry" />
        </mxCell>
        <mxCell id="3R4pQPPEvZektnw-kuWU-2" value="" style="points=[];perimeter=orthogonalPerimeter;shadow=0;strokeWidth=1;fillColor=#B2C9AB;strokeColor=#788AA3;fontColor=#46495D;rounded=0;" vertex="1" parent="3R4pQPPEvZektnw-kuWU-1">
          <mxGeometry x="45" y="80" width="10" height="160" as="geometry" />
        </mxCell>
      </root>
    </mxGraphModel>
  </diagram>
</mxfile>
